<?xml version="1.0" encoding="UTF-8"?><svg version="1.1" viewBox="0 0 512 512" xmlns="http://www.w3.org/2000/svg"><path d="m256.48 0.48242a256 256 0 0 0-256 256 256 256 0 0 0 256 256 256 256 0 0 0 256-256 256 256 0 0 0-256-256zm-96.771 156.82c23.351 0 42.317 6.901 56.9 20.703 8.6806 8.1597 15.191 19.878 19.531 35.156l-38.15 9.1133c-2.257-9.8958-6.9885-17.708-14.193-23.438-7.1181-5.7292-15.798-8.5938-26.041-8.5938-14.149 0-25.652 5.0781-34.506 15.234-8.7674 10.156-13.15 26.607-13.15 49.35 0 24.132 4.3409 41.319 13.021 51.562 8.6806 10.243 19.965 15.365 33.854 15.365 10.243 0 19.053-3.2552 26.432-9.7656 7.3785-6.5104 12.675-16.755 15.887-30.73l37.369 11.85c-5.7292 20.833-15.278 36.328-28.646 46.484-13.281 10.069-30.164 15.104-50.65 15.104-25.347 0-46.181-8.6358-62.5-25.91-16.319-17.361-24.479-41.059-24.479-71.094 0-31.771 8.2031-56.424 24.609-73.959 16.406-17.622 37.977-26.432 64.713-26.432zm198.18 0c23.698 0 42.188 4.99 55.469 14.973 13.368 9.8958 21.962 23.612 25.781 41.146l-38.281 7.1621c-2.691-9.375-7.7691-16.755-15.234-22.137-7.3785-5.4688-16.623-8.2031-27.734-8.2031-16.84 0-30.252 5.3385-40.234 16.016-9.8958 10.677-14.844 26.52-14.844 47.527 0 22.656 5.0341 39.669 15.104 51.041 10.069 11.285 23.265 16.928 39.584 16.928 8.0729 0 16.146-1.5625 24.219-4.6875 8.1597-3.2118 15.147-7.076 20.963-11.59v-24.219h-44.141v-32.16h83.072v76.041c-8.0729 7.8125-19.792 14.714-35.156 20.703-15.278 5.9028-30.773 8.8535-46.484 8.8535-19.965 0-37.369-4.1667-52.213-12.5-14.844-8.4202-25.998-20.399-33.463-35.938-7.4653-15.625-11.199-32.594-11.199-50.91 0-19.878 4.1667-37.545 12.5-52.996 8.3333-15.451 20.531-27.3 36.59-35.547 12.24-6.3368 27.474-9.5039 45.703-9.5039z" fill="#d2a1c1"/></svg>